<mxfile host="65bd71144e">
    <diagram id="4xQPf5nliKBcf_Qfy6Br" name="Page-1">
        <mxGraphModel dx="1379" dy="874" grid="1" gridSize="10" guides="1" tooltips="1" connect="1" arrows="1" fold="1" page="1" pageScale="1" pageWidth="850" pageHeight="1100" math="0" shadow="0">
            <root>
                <mxCell id="0"/>
                <mxCell id="1" parent="0"/>
                <mxCell id="24" style="edgeStyle=none;html=1;exitX=0.5;exitY=1;exitDx=0;exitDy=0;fontSize=31;" parent="1" source="2" edge="1">
                    <mxGeometry relative="1" as="geometry">
                        <mxPoint x="435" y="310" as="targetPoint"/>
                    </mxGeometry>
                </mxCell>
                <mxCell id="2" value="Enter Login Details/ Regester user" style="rounded=1;whiteSpace=wrap;html=1;" parent="1" vertex="1">
                    <mxGeometry x="375" y="180" width="120" height="60" as="geometry"/>
                </mxCell>
                <mxCell id="68" style="edgeStyle=none;html=1;" edge="1" parent="1" source="3">
                    <mxGeometry relative="1" as="geometry">
                        <mxPoint x="690" y="520" as="targetPoint"/>
                    </mxGeometry>
                </mxCell>
                <mxCell id="73" style="edgeStyle=none;html=1;entryX=1;entryY=0.5;entryDx=0;entryDy=0;" edge="1" parent="1" target="71">
                    <mxGeometry relative="1" as="geometry">
                        <mxPoint x="810" y="680" as="targetPoint"/>
                        <mxPoint x="750" y="370" as="sourcePoint"/>
                        <Array as="points">
                            <mxPoint x="819" y="372"/>
                            <mxPoint x="819" y="720"/>
                        </Array>
                    </mxGeometry>
                </mxCell>
                <mxCell id="3" value="Transection Interface" style="rounded=1;whiteSpace=wrap;html=1;" parent="1" vertex="1">
                    <mxGeometry x="630" y="330" width="120" height="60" as="geometry"/>
                </mxCell>
                <mxCell id="59" style="edgeStyle=none;html=1;" parent="1" source="4" edge="1">
                    <mxGeometry relative="1" as="geometry">
                        <mxPoint x="370" y="210" as="targetPoint"/>
                        <Array as="points">
                            <mxPoint x="180" y="210"/>
                        </Array>
                    </mxGeometry>
                </mxCell>
                <mxCell id="4" value="Regester / login" style="rounded=1;whiteSpace=wrap;html=1;" parent="1" vertex="1">
                    <mxGeometry x="120" y="340" width="120" height="60" as="geometry"/>
                </mxCell>
                <mxCell id="6" value="Withdraw Money" style="rounded=1;whiteSpace=wrap;html=1;" parent="1" vertex="1">
                    <mxGeometry x="396" y="693" width="120" height="60" as="geometry"/>
                </mxCell>
                <mxCell id="69" style="edgeStyle=none;html=1;" edge="1" parent="1" source="7">
                    <mxGeometry relative="1" as="geometry">
                        <mxPoint x="520" y="555" as="targetPoint"/>
                    </mxGeometry>
                </mxCell>
                <mxCell id="7" value="Deposit Money" style="rounded=1;whiteSpace=wrap;html=1;" parent="1" vertex="1">
                    <mxGeometry x="639" y="525" width="120" height="60" as="geometry"/>
                </mxCell>
                <mxCell id="67" style="edgeStyle=none;html=1;strokeColor=#FCFCFC;" parent="1" source="8" edge="1">
                    <mxGeometry relative="1" as="geometry">
                        <mxPoint x="760" y="350" as="targetPoint"/>
                        <Array as="points">
                            <mxPoint x="960" y="1275"/>
                            <mxPoint x="960" y="350"/>
                        </Array>
                    </mxGeometry>
                </mxCell>
                <mxCell id="8" value="Make another transection" style="rounded=1;whiteSpace=wrap;html=1;" parent="1" vertex="1">
                    <mxGeometry x="685" y="1245" width="120" height="60" as="geometry"/>
                </mxCell>
                <mxCell id="52" style="edgeStyle=none;html=1;fontSize=12;" parent="1" source="9" edge="1">
                    <mxGeometry relative="1" as="geometry">
                        <mxPoint x="230" y="1450" as="targetPoint"/>
                    </mxGeometry>
                </mxCell>
                <mxCell id="9" value="Loged Out" style="rounded=1;whiteSpace=wrap;html=1;" parent="1" vertex="1">
                    <mxGeometry x="170" y="1260" width="120" height="60" as="geometry"/>
                </mxCell>
                <mxCell id="16" style="edgeStyle=none;html=1;entryX=0.5;entryY=0;entryDx=0;entryDy=0;" parent="1" source="15" target="2" edge="1">
                    <mxGeometry relative="1" as="geometry">
                        <mxPoint x="435" y="140" as="targetPoint"/>
                    </mxGeometry>
                </mxCell>
                <mxCell id="15" value="" style="ellipse;whiteSpace=wrap;html=1;aspect=fixed;fillColor=#666666;fontColor=#ffffff;strokeColor=#2D7600;labelBackgroundColor=none;fillStyle=solid;" parent="1" vertex="1">
                    <mxGeometry x="410" y="40" width="50" height="50" as="geometry"/>
                </mxCell>
                <mxCell id="17" value="Strart" style="text;html=1;align=center;verticalAlign=middle;resizable=0;points=[];autosize=1;strokeColor=none;fillColor=none;fontSize=16;" parent="1" vertex="1">
                    <mxGeometry x="405" width="60" height="30" as="geometry"/>
                </mxCell>
                <mxCell id="25" style="edgeStyle=none;html=1;fontSize=31;" parent="1" source="23" edge="1">
                    <mxGeometry relative="1" as="geometry">
                        <mxPoint x="260" y="370" as="targetPoint"/>
                    </mxGeometry>
                </mxCell>
                <mxCell id="27" style="edgeStyle=none;html=1;fontSize=31;" parent="1" source="23" edge="1">
                    <mxGeometry relative="1" as="geometry">
                        <mxPoint x="610" y="370" as="targetPoint"/>
                    </mxGeometry>
                </mxCell>
                <mxCell id="23" value="" style="rhombus;whiteSpace=wrap;html=1;labelBackgroundColor=#FCFCFC;strokeWidth=16;fontSize=31;" parent="1" vertex="1">
                    <mxGeometry x="420" y="349" width="40" height="40" as="geometry"/>
                </mxCell>
                <mxCell id="28" value="&lt;span style=&quot;font-size: 12px;&quot;&gt;Valid User&lt;/span&gt;" style="text;html=1;align=center;verticalAlign=middle;resizable=0;points=[];autosize=1;strokeColor=none;fillColor=none;fontSize=31;" parent="1" vertex="1">
                    <mxGeometry x="500" y="320" width="80" height="50" as="geometry"/>
                </mxCell>
                <mxCell id="29" value="&lt;span style=&quot;font-size: 12px;&quot;&gt;Not Valid user&lt;/span&gt;" style="text;html=1;align=center;verticalAlign=middle;resizable=0;points=[];autosize=1;strokeColor=none;fillColor=none;fontSize=31;" parent="1" vertex="1">
                    <mxGeometry x="290" y="320" width="100" height="50" as="geometry"/>
                </mxCell>
                <mxCell id="48" style="edgeStyle=none;html=1;fontSize=12;entryX=0;entryY=0;entryDx=0;entryDy=0;" parent="1" source="46" edge="1" target="8">
                    <mxGeometry relative="1" as="geometry">
                        <mxPoint x="700" y="1310" as="targetPoint"/>
                    </mxGeometry>
                </mxCell>
                <mxCell id="81" style="edgeStyle=none;html=1;" edge="1" parent="1" source="46">
                    <mxGeometry relative="1" as="geometry">
                        <mxPoint x="469" y="1230" as="targetPoint"/>
                    </mxGeometry>
                </mxCell>
                <mxCell id="46" value="" style="rhombus;whiteSpace=wrap;html=1;labelBackgroundColor=#FCFCFC;strokeWidth=16;fontSize=12;direction=south;" parent="1" vertex="1">
                    <mxGeometry x="444" y="987" width="50" height="40" as="geometry"/>
                </mxCell>
                <mxCell id="53" value="" style="ellipse;whiteSpace=wrap;html=1;aspect=fixed;labelBackgroundColor=#FCFCFC;strokeWidth=16;fontSize=12;fillColor=#60a917;fontColor=#ffffff;strokeColor=#666666;" parent="1" vertex="1">
                    <mxGeometry x="209" y="1458" width="40" height="40" as="geometry"/>
                </mxCell>
                <mxCell id="58" value="End&amp;nbsp;" style="text;html=1;align=center;verticalAlign=middle;resizable=0;points=[];autosize=1;strokeColor=none;fillColor=none;fontSize=18;fontColor=#FCFCFC;" parent="1" vertex="1">
                    <mxGeometry x="199" y="1520" width="60" height="40" as="geometry"/>
                </mxCell>
                <mxCell id="70" style="edgeStyle=none;html=1;entryX=0.5;entryY=0;entryDx=0;entryDy=0;" edge="1" parent="1" source="60" target="6">
                    <mxGeometry relative="1" as="geometry"/>
                </mxCell>
                <mxCell id="60" value="Generate Slip" style="rounded=1;whiteSpace=wrap;html=1;" parent="1" vertex="1">
                    <mxGeometry x="398" y="529" width="120" height="60" as="geometry"/>
                </mxCell>
                <mxCell id="78" style="edgeStyle=none;html=1;entryX=0.5;entryY=0;entryDx=0;entryDy=0;" edge="1" parent="1" source="71" target="75">
                    <mxGeometry relative="1" as="geometry">
                        <mxPoint x="580" y="810" as="targetPoint"/>
                        <Array as="points">
                            <mxPoint x="580" y="723"/>
                        </Array>
                    </mxGeometry>
                </mxCell>
                <mxCell id="79" style="edgeStyle=none;html=1;entryX=0;entryY=0.5;entryDx=0;entryDy=0;" edge="1" parent="1" source="71" target="76">
                    <mxGeometry relative="1" as="geometry">
                        <mxPoint x="702" y="860" as="targetPoint"/>
                        <Array as="points">
                            <mxPoint x="700" y="860"/>
                        </Array>
                    </mxGeometry>
                </mxCell>
                <mxCell id="80" style="edgeStyle=none;html=1;" edge="1" parent="1">
                    <mxGeometry relative="1" as="geometry">
                        <mxPoint x="470" y="960" as="targetPoint"/>
                        <mxPoint x="660" y="760" as="sourcePoint"/>
                        <Array as="points">
                            <mxPoint x="660" y="790"/>
                            <mxPoint x="470" y="790"/>
                        </Array>
                    </mxGeometry>
                </mxCell>
                <mxCell id="71" value="Transfer Funds" style="rounded=1;whiteSpace=wrap;html=1;fillStyle=solid;" vertex="1" parent="1">
                    <mxGeometry x="642" y="693" width="120" height="60" as="geometry"/>
                </mxCell>
                <mxCell id="75" value="Add Payee" style="rounded=1;whiteSpace=wrap;html=1;fillStyle=solid;" vertex="1" parent="1">
                    <mxGeometry x="519" y="830" width="120" height="60" as="geometry"/>
                </mxCell>
                <mxCell id="76" value="Delete Pay" style="rounded=1;whiteSpace=wrap;html=1;fillStyle=solid;" vertex="1" parent="1">
                    <mxGeometry x="740" y="830" width="120" height="60" as="geometry"/>
                </mxCell>
                <mxCell id="82" value="Disply Payment&lt;br&gt;Confermation Page" style="rounded=1;whiteSpace=wrap;html=1;fillStyle=solid;" vertex="1" parent="1">
                    <mxGeometry x="411" y="1240" width="120" height="60" as="geometry"/>
                </mxCell>
                <mxCell id="84" style="edgeStyle=none;html=1;entryX=0.5;entryY=0;entryDx=0;entryDy=0;" edge="1" parent="1" source="60" target="9">
                    <mxGeometry relative="1" as="geometry">
                        <mxPoint x="230" y="1260" as="targetPoint"/>
                        <mxPoint x="398" y="556.7310924369747" as="sourcePoint"/>
                        <Array as="points">
                            <mxPoint x="230" y="560"/>
                        </Array>
                    </mxGeometry>
                </mxCell>
            </root>
        </mxGraphModel>
    </diagram>
</mxfile>